<svg id="Layer_1" data-name="Layer 1" xmlns="http://www.w3.org/2000/svg" viewBox="0 0 442.67 355.94"><defs><style>.cls-1{fill:#fff;}</style></defs><path class="cls-1" d="M64.46,354.92l76.71-160.09c-1.74-.25-3.19-.47-4.63-.65-22.13-2.81-42.8-9.37-59.5-24.87-16.16-15-21.6-33.95-18.41-55.47.92-6.21,2.69-12.28,4.14-18.4a32.48,32.48,0,0,1,1.48-3.86c.59,5.1.9,9.6,1.66,14,3.94,22.76,16.29,39.53,36.45,50.59,13,7.1,27,10.72,41.54,12.35a60.59,60.59,0,0,1,6.74.88c2.42.55,3.57-.43,4.55-2.5,2.51-5.33,5.09-10.62,7.88-15.8a5.3,5.3,0,0,1,3.39-2.63c18.11-1.42,35.85.16,52.8,7.29.38.15.72.37,1.3.67-.27.78-.46,1.55-.79,2.26-2.67,5.82-5.19,11.72-8.12,17.41-1.5,2.91-1.16,4.41,1.72,6.09a40,40,0,0,1,16.69,18.19,51.52,51.52,0,0,1,4.12,27.21c-1.42,13.31-5.58,25.77-11.33,37.77-.31.65-.58,1.32-.84,2a5.73,5.73,0,0,0,.06,1.26c.88-1.1,1.54-1.78,2.05-2.55,9.63-14.76,18.14-30.11,22.4-47.34,3.92-15.82,4-31.44-4.19-46.35-3.64-6.66-9.26-11-15.42-14.81-10.3-6.42-21.79-9.07-33.66-10.58-12.47-1.58-24.83-.68-37.32.28-7.62.58-15.58-1.22-23.19-2.86a69.94,69.94,0,0,1-41.92-26.64C82.76,107.2,78.91,94.94,76.9,81.82,71.44,46.19,52.23,20.17,20.7,3.08a5.79,5.79,0,0,1-.85-.72l.26-.82C26.79,3,33.53,4.24,40.14,6,54.83,9.93,68.06,16.58,78.66,27.82A57.08,57.08,0,0,1,94,59.93c1.63,11.62,4.79,22.81,11.32,32.81S121,108.2,132.37,110.07a161.17,161.17,0,0,0,21.85,1.87c14,.38,28.07.36,41.91,3.08a84.44,84.44,0,0,1,34.09,14.65,14.33,14.33,0,0,0,1.54,1,1.76,1.76,0,0,0,.72.12c1.8-6.8,3.59-13.54,5.57-21l-10,9-.85-.26c.68-2.87.92-5.94,2.12-8.58,2.68-5.9,5.85-11.57,8.81-17.34.71-1.39,1.37-2.81,2.06-4.22l-.65-.67-6.88,2.32a30.37,30.37,0,0,1,2.3-3.05q8.34-8.28,16.77-16.48c3.31-3.21,3.28-3.39-.39-6.13a126.14,126.14,0,0,1-10.9-8.58,17.31,17.31,0,0,1-5.66-12.51c2.64,2,4.83,3.76,7.1,5.4a26.6,26.6,0,0,0,18,5c8-.53,16.08-.65,24.13-.65,5.42,0,10.41,1.72,15.4,4a44.19,44.19,0,0,0,13,3.34c8.74,1.07,16.05,4.37,21.32,11.6.77,1.06,1.33,2.28,2.35,4-1.62-.17-2.67-.26-3.71-.38-9.54-1.11-19-.94-28.17,2.21-13,4.48-20.41,14.15-23.94,27.09-4.34,15.95-3.19,31.72,1.84,47.29,2.44,7.56,5.09,15,7.63,22.57a2.15,2.15,0,0,1,0,1.53,113.8,113.8,0,0,1-19.81-42c-3.95-15.68-1.5-30.89,3.75-45.92l-1.09-.42a35.68,35.68,0,0,0-2.67,3.76c-10.83,20.38-11.53,41.11-1.18,61.76,4.66,9.29,10.56,17.94,15.73,27,5.42,9.47,9,19.52,8.17,30.64-.67,9.22-4,17.62-8.19,25.78-6.06,11.92-14.88,21.74-23.47,31.78-8.33,9.75-16.14,19.89-20.6,32.15-.21.57-.36,1.16-.67,2.17H335c-.71-1.56-1.11-2.58-1.62-3.55-3.67-6.94-7.41-13.84-11-20.81-5.61-10.86-9.08-22.22-7.07-34.6,2.6-16,12-27.45,25.37-36.45,3,4.87,6,9.43,8.75,14.13,19.79,34.14,39.65,68.23,59.19,102.51,4.85,8.51,8.62,17.62,12.85,26.47a38.39,38.39,0,0,1,1.35,4.12ZM259.63,188.49l-1.53.1c2.2,34-12.57,60.3-36.83,82.22a4,4,0,0,1-.42-2.16c.5-9.47,1.51-19,1.39-28.42-.15-11.14-2.43-22-8.27-31.71a32.77,32.77,0,0,0-11.5-11.78L153.89,303.36c1.16.12,1.87.26,2.57.26,22.3,0,44.59,0,66.89.12,2.6,0,3.07-1.27,3.32-3.3,1.26-10.24,5.42-19.43,10.55-28.2,6.45-11,13.51-21.74,19.5-33,6.4-12.06,9.83-25,6.56-38.81C262.33,196.37,260.86,192.46,259.63,188.49Z"/><path class="cls-1" d="M250.26,66.54q-7.06,8-14.09,16.07c-2,2.26-4,4.49-5.82,6.85-.52.67-.5,1.77-.73,2.68a11.83,11.83,0,0,0,3.08.39,20.9,20.9,0,0,0,3.91-1.48c-1.5,2.59-2.52,4.43-3.62,6.23a56.79,56.79,0,0,0-7.92,21.34c-.18,1.17.35,2.45.56,3.68a16.67,16.67,0,0,0,3.42-1.39,43.34,43.34,0,0,0,4.19-3.77c-.78,3.84-1.4,6.89-2.1,10.32-2.38-1.44-4.54-2.76-6.71-4-11.85-7-24.78-10.57-38.37-12a25.7,25.7,0,0,1-4.77-1.53l-.55.46c-3.6-5.78-6.61-11.85-10.76-17-9.13-11.36-21.28-18.92-34.65-24.18-10.32-4.06-21.09-7-31.7-10.33-2.45-.77-4.39-1.31-4.91-4.49C96.82,42.62,91.28,32.76,83,24.42c-.4-.41-.73-.88-1.69-2.05,5.54,1.29,10.23,2.35,14.9,3.49,23.19,5.69,45.22,14.21,65.27,27.37,12.24,8,23.09,17.63,31.9,30.6,12.71-27.75,25.19-55,37.95-82.81l25.94,50.66a24.14,24.14,0,0,1-15.57-5.62c-1.62-1.27-3-2.83-4.64-4.09a19.48,19.48,0,0,0-3.28-1.68c-.34,1.21-1,2.43-1,3.63.22,6.41,3.43,11.4,8.13,15.43C244.26,62.22,247.91,64.75,250.26,66.54Z"/></svg>