<svg id="Layer_1" data-name="Layer 1" xmlns="http://www.w3.org/2000/svg" viewBox="0 0 442.67 355.94"><defs><style>.cls-1{fill:#fcc00d;}</style></defs><path class="cls-1" d="M427.32,184.57,258.11,15.24a52,52,0,0,0-73.55,0L15.34,184.57A52,52,0,0,0,52.11,273.3h3.41a16.92,16.92,0,0,0,12-5L176.71,159A14.49,14.49,0,0,1,187,154.68h0A14.53,14.53,0,0,1,197.36,159l49.57,49.57a16.92,16.92,0,0,0,23.93,0h0a16.92,16.92,0,0,0,0-23.93L221.29,135A48.44,48.44,0,0,0,187,120.83h0A48.12,48.12,0,0,0,152.77,135L55.7,232.24a12.47,12.47,0,0,1-20.21-3.65c-.05-.12-.09-.22-.14-.32a17.78,17.78,0,0,1,3.94-19.77L208.51,39.16a18.57,18.57,0,0,1,25.65,0L403.38,208.5a17.8,17.8,0,0,1,3.93,19.76,10.73,10.73,0,0,1-17.49,3.46L365,206.89a48.08,48.08,0,0,0-34.25-14.2h0a48.18,48.18,0,0,0-34.27,14.21l-61.37,61.5a16.92,16.92,0,1,0,24,23.91l61.36-61.49a14.52,14.52,0,0,1,10.33-4.28h0a14.58,14.58,0,0,1,10.32,4.27l37.54,37.54a16.91,16.91,0,0,0,12,4.95,52,52,0,0,0,36.77-88.73Z"/><path class="cls-1" d="M199.08,184.6a16.92,16.92,0,0,0-23.93,0L113.65,246a48.43,48.43,0,0,0,0,68.54l33.85,33.85a16.92,16.92,0,0,0,23.93,0h0a16.94,16.94,0,0,0,0-23.93l-33.86-33.85a14.58,14.58,0,0,1,0-20.65l61.51-61.37a16.93,16.93,0,0,0,0-23.93Z"/><path class="cls-1" d="M163.11,268.25a16.92,16.92,0,0,0,0,23.93l49.58,49.58a48.43,48.43,0,0,0,34.24,14.18h0a48.1,48.1,0,0,0,34.27-14.21l61.37-61.5a16.92,16.92,0,0,0-24-23.91l-61.36,61.49a14.48,14.48,0,0,1-10.33,4.29h0a14.59,14.59,0,0,1-10.32-4.28L187,268.25A16.94,16.94,0,0,0,163.11,268.25Z"/></svg>